<?xml version="1.0" encoding="UTF-8"?>
<svg width="700pt" height="700pt" version="1.1" viewBox="0 0 700 700" xmlns="http://www.w3.org/2000/svg" xmlns:xlink="http://www.w3.org/1999/xlink">
 <g>
  <path d="m529.2 322.56c-0.015625 20.172-8.0273 39.512-22.285 53.777-14.258 14.27-33.594 22.297-53.762 22.328h-195.16c-30.637-0.77734-58.617-17.566-73.715-44.234-15.098-26.668-15.098-59.301 0-85.969 15.098-26.668 43.078-43.461 73.715-44.238h2.4062c5.4297-21.754 19.43-40.391 38.816-51.66 19.387-11.266 42.508-14.211 64.098-8.1641 21.594 6.0508 39.82 20.582 50.527 40.281 4.1328-0.96094 8.3594-1.4492 12.602-1.457 13.488 0.070313 26.488 5.0664 36.555 14.047 10.066 8.9844 16.504 21.336 18.102 34.73 14.141 5.6211 26.277 15.344 34.852 27.918 8.5703 12.574 13.188 27.426 13.25 42.641z"/>
 </g>
</svg>
