<?xml version="1.0" encoding="UTF-8"?>
<svg width="700pt" height="700pt" version="1.1" viewBox="0 0 700 700" xmlns="http://www.w3.org/2000/svg" xmlns:xlink="http://www.w3.org/1999/xlink">
 <g>
  <path d="m504.89 183.9c0-90.551-68.039-161.5-154.89-161.5s-154.89 70.953-154.89 161.5c0 40.039 16.297 100.8 46.48 134.06v0.003906c13.164 14.82 21.039 33.59 22.398 53.367-3.6211 1.9844-6.6445 4.8984-8.7617 8.4414-2.1172 3.5469-3.25 7.5898-3.2773 11.719v8.9609c0.023438 6.7695 3.0352 13.184 8.2305 17.527-5.1914 4.3203-8.207 10.719-8.2305 17.473v4.5938-0.003906c0.011719 6.0938 2.4219 11.934 6.7109 16.262 4.2852 4.3281 10.102 6.793 16.191 6.8672l9.5742 52.695h0.003906c0.60547 3.2461 2.668 6.0352 5.5977 7.5625 37.781 18.848 82.227 18.848 120.01 0 2.9336-1.5195 5.0039-4.3125 5.6016-7.5625l9.5742-52.695c6.1016-0.058593 11.934-2.5195 16.23-6.8477 4.2969-4.332 6.7148-10.18 6.7305-16.281v-4.5938 0.003906c-0.027344-6.7539-3.0391-13.152-8.2305-17.473 5.1914-4.3438 8.207-10.758 8.2305-17.527v-8.9609c-0.015625-4.168-1.1562-8.25-3.3086-11.82-2.1484-3.5703-5.2227-6.4883-8.8984-8.4531 1.4062-19.699 9.2812-38.379 22.398-53.145 30.242-33.43 46.535-94.078 46.535-134.18zm-100.18 329.67c-34.488 17.027-74.934 17.027-109.42 0l-9.1836-50.398h127.79zm32.312-73.527c0 6.5898-5.3398 11.93-11.926 11.93h-150.14c-6.5898 0-11.93-5.3398-11.93-11.93v-4.5938 0.003906c0.03125-6.5664 5.3633-11.875 11.93-11.871h150.14c6.5625-0.003907 11.895 5.3047 11.926 11.871zm0-48.551v8.9609c-0.03125 6.5742-5.3516 11.895-11.926 11.926h-150.14c-6.5742-0.03125-11.898-5.3516-11.93-11.926v-8.9609c0.03125-6.5742 5.3555-11.898 11.93-11.93h150.14c6.5742 0.03125 11.895 5.3555 11.926 11.93zm-108.47-23.129v-35.672c-0.30078-5.8867 1.8281-11.637 5.8867-15.91 4.0625-4.2695 9.6953-6.6914 15.59-6.6914 5.8945 0 11.531 2.4219 15.59 6.6914 4.0586 4.2734 6.1875 10.023 5.8867 15.91v35.672zm96.488 0h-42.336v-35.672c0.37109-8.8984-2.9102-17.566-9.0781-23.992-6.1641-6.4297-14.688-10.062-23.598-10.062-8.9062 0-17.43 3.6328-23.598 10.062-6.168 6.4258-9.4453 15.094-9.0781 23.992v35.672h-42.504c-1.8711-21.477-10.609-41.781-24.918-57.902-28.336-31.359-43.625-88.594-43.625-126.56 0-73.867 53.758-150.3 143.7-150.3 81.93 0 143.7 64.621 143.7 150.3 0 37.969-15.289 95.199-43.68 126.67-14.316 16.082-23.074 36.348-24.977 57.793z"/>
  <path d="m350 226.35c-6.9883-0.019531-13.828 2.0273-19.656 5.8828s-10.387 9.3516-13.105 15.789c-0.30078 0.70703-0.45312 1.4727-0.44531 2.2422-0.011719 1.4062 0.50781 2.7656 1.4531 3.8047l27.664 29.734v0.003906c1.0625 1.1289 2.5391 1.7734 4.0898 1.7734s3.0273-0.64453 4.0898-1.7734l27.664-29.734v-0.003907c0.94531-1.0391 1.4648-2.3984 1.4531-3.8047 0.015625-0.75391-0.13672-1.5-0.44531-2.1875-2.7109-6.4492-7.2656-11.953-13.094-15.82-5.8281-3.8672-12.672-5.9219-19.668-5.9062zm0 45.414-20.887-22.398c4.4219-7.3086 12.344-11.773 20.887-11.773s16.465 4.4648 20.887 11.773z"/>
  <path d="m350 166.38c-28.727-0.027344-55.934 12.914-74.031 35.227-1.8242 2.1016-1.8242 5.2305 0 7.3359l20.719 22.398c1.1484 1.2422 2.793 1.9023 4.4805 1.793 1.6836-0.11328 3.2266-0.97656 4.1992-2.3516 10.16-14.469 26.73-23.082 44.41-23.082 17.676 0 34.246 8.6133 44.406 23.082 0.97656 1.375 2.5195 2.2383 4.1992 2.3516h0.39453c1.5508-0.007812 3.0312-0.65625 4.0859-1.793l20.719-22.398h0.003907c1.8242-2.1055 1.8242-5.2344 0-7.3359-18-22.191-45.016-35.121-73.586-35.227zm49.336 52.359c-12.441-14.234-30.43-22.402-49.336-22.402s-36.895 8.168-49.336 22.402l-12.824-13.773c15.922-17.516 38.492-27.504 62.16-27.504s46.238 9.9883 62.16 27.504z"/>
  <path d="m464.91 157.08c-29.477-32.207-71.133-50.551-114.8-50.551-43.664 0-85.32 18.344-114.8 50.551-1.957 2.1406-1.957 5.4219 0 7.5625l20.496 22.398c1.1016 1.1445 2.6094 1.8086 4.1992 1.8477 1.5977-0.03125 3.1055-0.74219 4.1445-1.957 21.684-24.84 53.043-39.09 86.016-39.09 32.973 0 64.332 14.25 86.016 39.09 1.0391 1.2148 2.5469 1.9258 4.1445 1.957 1.5586-0.019531 3.043-0.6875 4.0859-1.8477l20.496-22.398c1.9609-2.1406 1.9609-5.4219 0-7.5625zm-24.641 17.641h0.003907c-23.633-24.516-56.223-38.363-90.273-38.363s-66.641 13.848-90.273 38.363l-12.824-13.832c27.16-27.684 64.316-43.281 103.1-43.281s75.938 15.598 103.1 43.281z"/>
 </g>
</svg>
